<?xml version="1.0" encoding="utf-8"?>
<!-- Generator: Adobe Illustrator 18.0.0, SVG Export Plug-In . SVG Version: 6.00 Build 0)  -->
<!DOCTYPE svg PUBLIC "-//W3C//DTD SVG 1.1//EN" "http://www.w3.org/Graphics/SVG/1.1/DTD/svg11.dtd">
<svg version="1.1" id="Layer_1" xmlns="http://www.w3.org/2000/svg" xmlns:xlink="http://www.w3.org/1999/xlink" x="0px" y="0px"
	 viewBox="0 0 126 81" enable-background="new 0 0 126 81" xml:space="preserve">
<g>
	<g>
		<g>
			<g>
				<path fill="none" stroke="#000000" stroke-miterlimit="10" d="M26,62.6"/>
			</g>
		</g>
	</g>
	<path fill="none" stroke="#000000" stroke-miterlimit="10" d="M119.1,23.7c-1-2-2.5-3.6-4.4-4.9c-1.6-1.1-3.4-1.9-5.5-2.4
		c-2.1-0.5-4.6-0.8-7.6-0.8H88.2v0c-7.4,0.4-14.3,6.9-16.9,15c-1.8-0.9-3.8-1.4-6-1.4c-2.5,0-4.7,0.5-6.7,1.4s-3.8,2.2-5.6,3.7
		c-0.1-4.7-0.2-9.3-0.3-14c-0.1-3.9,0.4-7.9-2-11.3c-4.2-5.9-11.4-4.1-16,0.2c-3.4,3.1-5.5,7.4-6.5,11.9c-0.7-0.6-1.5-1.2-2.3-1.7
		c-2-1.3-4.4-2.3-7.2-3c-2.9-0.7-6.7-1.1-11.5-1.1l7.5,4.6c7.7,2.9,13.9,7.5,15.7,16.1c0,0.1,0,0.2,0,0.3c1.6,5.6-0.4,11.9-3.2,16.9
		c-3.7,6.7-11.2,7.2-17.8,8.7L7.2,67c4.6,0,8.2-0.3,11-1c2.8-0.6,5.3-1.7,7.6-3.2c3.3-2.1,5.9-5.1,7.8-8.9c2-3.8,2.9-8.1,2.9-12.8
		c0-5-0.9-9.4-2.8-13c-0.2-0.4-0.4-0.7-0.6-1.1c0.2-4.5,2.5-8.8,5.3-12.1c1.5-1.7,5.5-6.2,7.6-2.9c0.4,0.6,0.6,1.3,0.7,2
		c0.2,3,0,5.9,0,8.9c0,3,0,6,0,8.9c0,7.8,0,15.6,0,23.4c0,4.5,0,9,0,13.5c0,0,0,0.1,0,0.1h5.9l0.4-1.8c1.5,0.9,3.1,1.6,4.7,2.1
		s3.4,0.8,5.5,0.8c2.3,0,4.3-0.5,6.2-1.4c1.9-0.9,3.6-2.3,5.2-4.1c1.5-1.8,2.7-3.9,3.5-6.5s1.3-5.5,1.3-8.8c0-6-1.1-10.8-3.4-14.2
		c1-6.9,6.4-13.1,12.1-13.6v45.7h6.6V47.9h6.6c3.6,0,6.5-0.4,8.8-1.3c2.3-0.9,4.4-2.2,6.1-4c1.4-1.4,2.4-3.1,3.2-5.1
		c0.8-2,1.1-4.1,1.1-6.4C120.6,28.1,120.1,25.6,119.1,23.7z M70.1,60.7c-2,2.4-4.7,3.6-8.1,3.6c-1.6,0-3.1-0.2-4.3-0.5
		c-1.3-0.3-2.8-0.9-4.6-1.7V39.8c1.6-1.3,3.3-2.4,5.2-3.2s3.7-1.2,5.5-1.2c3.3,0,5.6,1.2,7.1,3.6S73,44.9,73,49.5
		C73,54.6,72,58.3,70.1,60.7z M113.1,35.4c-0.4,1.2-1.2,2.4-2.2,3.5c-1,1.1-2.4,1.9-4.1,2.4c-1.7,0.5-3.8,0.7-6.5,0.7h-5.6V21.4h6.5
		c2.1,0,3.8,0.2,5.2,0.5c1.4,0.3,2.6,0.8,3.6,1.5c1.2,0.8,2.1,1.9,2.7,3.2s0.9,2.9,0.9,4.7C113.7,32.8,113.5,34.2,113.1,35.4z"/>
</g>
</svg>
