<?xml version="1.0" encoding="utf-8"?>
<!-- Generator: Adobe Illustrator 18.0.0, SVG Export Plug-In . SVG Version: 6.00 Build 0)  -->
<!DOCTYPE svg PUBLIC "-//W3C//DTD SVG 1.1//EN" "http://www.w3.org/Graphics/SVG/1.1/DTD/svg11.dtd">
<svg version="1.1" id="Layer_1" xmlns="http://www.w3.org/2000/svg" xmlns:xlink="http://www.w3.org/1999/xlink" x="0px" y="0px"
	 viewBox="0 0 126 81" enable-background="new 0 0 126 81" xml:space="preserve">
<g>
	<g>
		<g>
			<path fill="#FFFFFF" d="M34.5,28.8c-1.9-3.7-4.5-6.6-7.9-8.8c-2-1.3-4.4-2.3-7.2-3c-2.9-0.7-6.7-1.1-11.5-1.1l7.5,4.6
				c7.7,2.9,13.9,7.5,15.7,16.1c0,0.1,0,0.2,0,0.3c1.6,5.6-0.4,11.9-3.2,16.9c-3.7,6.7-11.2,7.2-17.8,8.7L8,67.6c4.6,0,8.2-0.3,11-1
				c2.8-0.6,5.3-1.7,7.6-3.2c3.3-2.1,5.9-5.1,7.8-8.9c2-3.8,2.9-8.1,2.9-12.8C37.4,36.8,36.4,32.4,34.5,28.8z"/>
		</g>
		<g>
			<path fill="#FFFFFF" d="M80.3,49.9c0,3.2-0.4,6.2-1.3,8.8c-0.9,2.6-2.1,4.8-3.5,6.5c-1.6,1.8-3.3,3.2-5.2,4.1
				c-1.9,0.9-4,1.4-6.2,1.4c-2.1,0-4-0.3-5.5-0.8c-1.6-0.5-3.1-1.2-4.7-2.1l-0.4,1.8h-5.9V16.8h5.8l0.4,18.1
				c1.8-1.5,3.6-2.7,5.6-3.7c2-1,4.2-1.4,6.7-1.4c4.4,0,7.9,1.8,10.4,5.3C79,38.5,80.3,43.5,80.3,49.9z M73.8,50.1
				c0-4.6-0.7-8.1-2.2-10.5s-3.8-3.6-7.1-3.6c-1.8,0-3.7,0.4-5.5,1.2s-3.6,1.9-5.2,3.2v22.2c1.8,0.8,3.3,1.4,4.6,1.7
				c1.3,0.3,2.7,0.5,4.3,0.5c3.5,0,6.2-1.2,8.1-3.6C72.9,58.9,73.8,55.1,73.8,50.1z"/>
		</g>
		<g>
			<path fill="#FFFFFF" d="M121.4,31.7c0,2.3-0.4,4.4-1.1,6.4c-0.8,2-1.8,3.7-3.2,5.1c-1.7,1.8-3.7,3.1-6.1,4s-5.3,1.3-8.8,1.3h-6.6
				v19.3H89V16.1h13.5c3,0,5.5,0.3,7.6,0.8c2.1,0.5,3.9,1.3,5.5,2.4c1.9,1.3,3.3,3,4.4,4.9S121.4,28.7,121.4,31.7z M114.6,31.9
				c0-1.8-0.3-3.3-0.9-4.7c-0.6-1.3-1.5-2.4-2.7-3.2c-1.1-0.7-2.3-1.2-3.6-1.5s-3.1-0.5-5.2-0.5h-6.5v20.7h5.6
				c2.7,0,4.8-0.2,6.5-0.7c1.7-0.5,3-1.3,4.1-2.4c1-1.1,1.8-2.3,2.2-3.5C114.4,34.8,114.6,33.4,114.6,31.9z"/>
		</g>
	</g>
	<g>
		<g>
			<g>
				<path fill="#FFFFFF" stroke="#000000" stroke-miterlimit="10" d="M26.9,63.2"/>
			</g>
		</g>
	</g>
	<g>
		<path fill="#FFFFFF" d="M76.7,38H71c0-11.3,8.8-21.7,18.4-21.9l0.1,5.9C83,22.2,76.7,30,76.7,38z"/>
	</g>
	<g>
		<path fill="#FFFFFF" d="M33.9,28.3h-5.7c0-12.4,7.3-22.4,16.7-22.6l0.1,5.9C38.9,11.8,33.9,19.2,33.9,28.3z"/>
	</g>
	<g>
		<path fill="#FFFFFF" d="M53.1,18.4l-5.5-1.5c0-1.7-0.2-3-1.1-4.2c-0.6-0.8-1.3-1.3-1.7-1.2l-0.1-5.9c2.3,0,4.5,1.2,6.3,3.4
			C53,11.8,54,15.2,53.1,18.4z"/>
	</g>
</g>
</svg>
